<?xml version="1.0" encoding="UTF-8"?>
<svg xmlns="http://www.w3.org/2000/svg" viewBox="0 200 480 630"><g id="_图层_1"><path d="M2.5684,405.8311h2.7959v17.9131h6.7461v2.7959H2.5684v-20.709Z" fill="#2A2620"/><path d="M22.7002,405.0342l9.7778,21.5059h-2.9644l-2.4028-5.2993h-8.7881l-2.3765,5.2993h-2.9424l9.6963-21.5059ZM22.6929,411.4976l-3.313,7.3862h6.6616l-3.3486-7.3862Z" fill="#2A2620"/><path d="M35.4854,405.8311h3.2837c2.1562,0,3.9175.4683,5.2827,1.4048,1.3657.9365,2.0483,2.1191,2.0483,3.5483,0,1.7437-1.0078,3.1997-3.0234,4.3691,3.1211,1.041,4.6812,2.8467,4.6812,5.4165,0,1.79-.8042,3.2324-2.4136,4.3276s-3.7632,1.6426-6.4614,1.6426h-3.3975v-20.709ZM38.2812,408.334v6.1284c1.5605-.0215,2.7554-.3193,3.5845-.894.8286-.5742,1.2432-1.3652,1.2432-2.373,0-.8779-.3735-1.5796-1.1216-2.1055-.7476-.5254-1.75-.7881-3.0073-.7881-.271,0-.5039.0107-.6987.0322ZM38.2812,416.9171v7.0874h.2275c2.4385,0,4.1016-.3901,4.9902-1.1704s1.333-1.5771,1.333-2.3896c0-1.0728-.4985-1.9287-1.4956-2.5684-.9971-.6392-2.3623-.959-4.0962-.959h-.959Z" fill="#2A2620"/><path d="M50.8628,416.0635c0-2.9888,1.127-5.5498,3.3813-7.6826,2.2539-2.1333,4.9629-3.2002,8.1274-3.2002,3.0884,0,5.749,1.0747,7.9814,3.2241,2.2324,2.1499,3.3486,4.7026,3.3486,7.6587,0,3.1299-1.103,5.7749-3.3081,7.9351-2.2051,2.1606-4.9116,3.2407-8.1196,3.2407-3.1641,0-5.8574-1.0884-8.0786-3.2651-2.2217-2.1768-3.3325-4.8135-3.3325-7.9106ZM70.6943,416.1934c0-2.2842-.8237-4.2085-2.4707-5.7725-1.6475-1.5645-3.6738-2.3467-6.0796-2.3467-2.2866,0-4.2456.7954-5.8765,2.3872-1.6309,1.5913-2.4463,3.502-2.4463,5.7319,0,2.2632.8374,4.1768,2.5117,5.7407,1.6743,1.5645,3.7246,2.3467,6.1523,2.3467,2.2324,0,4.1587-.7983,5.7788-2.3955,1.6201-1.5967,2.4302-3.4941,2.4302-5.6919Z" fill="#2A2620"/><path d="M77.8306,405.8311h4.4863c2.2324,0,4.0498.5552,5.4536,1.6655,1.4033,1.1104,2.105,2.5322,2.105,4.2656,0,1.3867-.4541,2.6113-1.3618,3.6729-.9082,1.062-2.3242,1.8091-4.2476,2.2427l6.0156,8.8623h-3.2446l-5.7446-8.5176h-.6338v8.5176h-2.8281v-20.709ZM80.6587,408.334v7.2173c4.1719.0869,6.2583-1.1216,6.2583-3.6245,0-.8779-.2437-1.5957-.7314-2.1538s-1.1377-.9375-1.9507-1.1382c-.8125-.2002-2.0049-.3008-3.5762-.3008Z" fill="#2A2620"/><path d="M101.7656,405.0342l9.7778,21.5059h-2.9644l-2.4028-5.2993h-8.7881l-2.3765,5.2993h-2.9424l9.6963-21.5059ZM101.7583,411.4976l-3.313,7.3862h6.6616l-3.3486-7.3862Z" fill="#2A2620"/><path d="M111.2183,405.8311h12.6631v2.8281h-4.9419v17.8809h-2.7959v-17.8809h-4.9253v-2.8281Z" fill="#2A2620"/><path d="M125.5391,416.0635c0-2.9888,1.127-5.5498,3.3813-7.6826,2.2539-2.1333,4.9629-3.2002,8.1274-3.2002,3.0884,0,5.749,1.0747,7.9814,3.2241,2.2324,2.1499,3.3486,4.7026,3.3486,7.6587,0,3.1299-1.103,5.7749-3.3081,7.9351-2.2051,2.1606-4.9116,3.2407-8.1196,3.2407-3.1641,0-5.8574-1.0884-8.0786-3.2651-2.2217-2.1768-3.3325-4.8135-3.3325-7.9106ZM145.3706,416.1934c0-2.2842-.8237-4.2085-2.4707-5.7725-1.6475-1.5645-3.6738-2.3467-6.0796-2.3467-2.2866,0-4.2456.7954-5.8765,2.3872-1.6309,1.5913-2.4463,3.502-2.4463,5.7319,0,2.2632.8374,4.1768,2.5117,5.7407,1.6743,1.5645,3.7246,2.3467,6.1523,2.3467,2.2324,0,4.1587-.7983,5.7788-2.3955,1.6201-1.5967,2.4302-3.4941,2.4302-5.6919Z" fill="#2A2620"/><path d="M152.5073,405.8311h4.4863c2.2324,0,4.0498.5552,5.4536,1.6655,1.4033,1.1104,2.105,2.5322,2.105,4.2656,0,1.3867-.4541,2.6113-1.3618,3.6729-.9082,1.062-2.3242,1.8091-4.2476,2.2427l6.0156,8.8623h-3.2446l-5.7446-8.5176h-.6338v8.5176h-2.8281v-20.709ZM155.3354,408.334v7.2173c4.1719.0869,6.2583-1.1216,6.2583-3.6245,0-.8779-.2437-1.5957-.7314-2.1538s-1.1377-.9375-1.9507-1.1382c-.8125-.2002-2.0049-.3008-3.5762-.3008Z" fill="#2A2620"/><path d="M168.6646,405.8311h2.7959v20.709h-2.7959v-20.709Z" fill="#2A2620"/><path d="M175.9146,405.8633h2.8286v12.728c0,1.8857.4521,3.3433,1.3569,4.3726.9048,1.0298,2.1865,1.5444,3.8447,1.5444,1.647,0,2.9282-.4741,3.8442-1.4224.9155-.9482,1.3735-2.2842,1.3735-4.0068v-13.2158h2.8286v13.0205c0,2.5356-.7236,4.5625-2.1704,6.0796s-3.373,2.2759-5.7788,2.2759c-2.46,0-4.4292-.7695-5.9087-2.3086-1.479-1.5386-2.2188-3.8091-2.2188-6.811v-12.2563Z" fill="#2A2620"/><path d="M213.2124,404.9693l5.665,21.5708h-2.7725l-3.4282-13.1797-5.9014,13.9761-5.9194-14.0913-3.4751,13.2949h-2.7563l5.665-21.5708,6.4834,15.4341,6.4395-15.4341Z" fill="#2A2620"/><path d="M5.0205,328.4044h8.2603l5.6099,32.3311h.5547l-1.0273-32.3311h8.959v61.9268h-7.9316l-6.144-34.3828h-.3491l.9863,34.3828H5.0205v-61.9268Z" fill="#2A2620"/><path d="M31.8477,338.4341c0-2.9126,1.1162-5.395,3.3496-7.4468,2.2324-2.0513,4.9106-3.0771,8.0342-3.0771,3.1777,0,5.877,1.0259,8.0962,3.0771,2.2188,2.0518,3.3286,4.5342,3.3286,7.4468s-1.1167,5.4014-3.3496,7.4653c-2.2329,2.0645-4.9248,3.0962-8.0752,3.0962-3.1235,0-5.8018-1.0317-8.0342-3.0962-2.2334-2.064-3.3496-4.5527-3.3496-7.4653ZM36.3682,338.4151c0,1.7676.6738,3.2769,2.0225,4.5269,1.3477,1.25,2.9746,1.8745,4.8818,1.8745,1.8789,0,3.4927-.6245,4.8413-1.8745,1.3477-1.25,2.022-2.7593,2.022-4.5269s-.6743-3.2764-2.022-4.5264c-1.3486-1.2505-2.9624-1.8755-4.8413-1.8755-1.9072,0-3.5342.625-4.8818,1.8755-1.3486,1.25-2.0225,2.7583-2.0225,4.5264Z" fill="#2A2620"/><polygon points="171.9169 437.5111 171.9169 450.1488 395.7999 450.1488 395.7999 586.263 418.3859 586.263 418.3859 437.5111 171.9169 437.5111" fill="#2A2620"/><path d="M378.0134,564.5845c-33.8179-28.063-62.6065-35.322-82.8621-36.6607-51.0747-3.3753-111.5621,26.6844-111.5655,26.6854,11.131-9.3475,53.1428-42.3402,113.8709-40.4668,38.1635,1.1775,66.5514,15.5949,80.5596,24.0398-.001,8.8009-.0019,17.6014-.0029,26.4023Z" fill="#2A2620"/><path d="M270.7139,543.1984c-63.9187,1.5043-118.4826,44.7744-132.8882,103.7543-13.9004,56.9114,13.4483,112.6541,53.7913,142.221,41.8343,30.6598,88.5126,26.4832,101.5024,24.8204,39.3853-5.0418,65.8999-24.9749,76.5653-33.9959-63.4538,36.5232-140.563,23.6477-181.3936-25.4093-30.446-36.5804-40.6074-93.1427-16.3743-141.1621,29.5302-58.5156,92.4251-69.2525,98.797-70.2285Z" fill="#2A2620"/><path d="M295.1513,829.4051c16.3274-.1534,51.1345-2.7908,86.6724-24.9407,11.5748-7.2143,50.3945-32.2318,67.2648-83.0485,11.6535-35.1026,7.2289-65.6323,4.1461-80.087-8.2048.2276-16.4097.4555-24.6145.6831,2.8643,13.1332,11.4241,60.0903-14.8221,107.9891-36.8151,67.1867-110.3688,78.2965-118.6467,79.4039Z" fill="#2A2620"/><polygon points="70.4552 212.4373 312.7344 212.4373 312.7344 231.2589 89.7474 231.2589 89.5122 399.5539 70.4552 399.5539 70.4552 212.4373" fill="#2A2620"/><path d="M83.8311,325.2204c9.9138-8.9556,52.5098-45.395,113.8709-42.5841,66.2585,3.0353,121.3203,50.321,141.1622,106.5776,15.3294,43.4625,5.8128,81.4372,2.8233,91.9906-18.2176,64.3143-72.4035,93.0512-82.1094,97.9905-11.2469,4.8969-66.5752,27.5957-127.1655,2.7732-41.8913-17.1618-64.0033-47.906-69.9912-56.7678-25.0011-37.0004-26.646-73.9611-26.5856-87.6894h19.7719c.0957,14.1004,2.3352,46.0447,23.6355,77.455,4.2479,6.264,36.0932,51.5925,95.2845,58.9352,10.107,1.2537,37.5276,3.4488,68.0079-9.5283,41.0875-17.493,80.2646-59.3744,84.8003-114.224,5.359-64.8048-39.2983-127.6529-103.171-143.7116-50.3576-12.6608-104.772,5.7449-140.334,46.7803v-27.9972Z" fill="#2A2620"/></g><g id="_图层_3"><rect x="472.1482" width="134.4751" height="63.6123" fill="none"/><path d="M472.8862,15.588c1.5127-.0723,1.6572-.3784,1.6572-1.6924v-7.3823c0-1.3145-.1445-1.6206-1.6572-1.6929v-.252h7.6523c0,.9727.0908,1.9087.1621,2.7729l-.3242.0361c-.3418-1.9087-.8096-2.377-2.8809-2.377h-1.5117c-.4688,0-.5049.0361-.5049.5044v4.375h2.0713c1.6924,0,1.8359-.1621,2.1426-1.3682h.3057v3.4932h-.3057c-.3066-1.4048-.4502-1.6206-2.1426-1.6206h-2.0713v3.5112c0,1.314.1621,1.6021,1.9814,1.6924v.252h-4.5742v-.252Z" fill="#2A2620"/><path d="M490.0249,11.9507c0,2.7188-2.2324,4.0874-3.9609,4.0874-2.377,0-3.9971-1.8008-3.9971-3.7632,0-2.917,2.4482-4.1235,3.9609-4.1235,2.2686,0,3.9971,1.7109,3.9971,3.7993ZM483.2007,11.6807c0,2.3047,1.2061,3.9434,3.1152,3.9434,1.5127,0,2.6104-.9727,2.6104-3.4033,0-1.7466-1.0625-3.6372-3.0605-3.6372-1.6562,0-2.665,1.2964-2.665,3.0972Z" fill="#2A2620"/><path d="M491.3003,15.588c1.0439-.0723,1.332-.3423,1.332-1.4224v-3.6191c0-1.2065-.126-1.2783-1.1338-1.4766v-.2339c.7197-.1802,1.4395-.3423,1.998-.7563v1.4946c.3604-.2163.8105-.5405,1.3682-.9185.5049-.3062.9541-.5044,1.459-.5044,1.4941,0,2.3408.9185,2.3408,2.3408v3.583c0,1.2607.1621,1.4404,1.1699,1.5127v.252h-3.4746v-.252c1.2236-.0723,1.4404-.3242,1.4404-1.5127v-2.9526c0-1.0264-.2881-2.1787-1.9453-2.1787-.8818,0-1.7998.54-2.3584,1.0981v4.0513c0,1.1523.1797,1.4224,1.4229,1.4946v.252h-3.6191v-.252Z" fill="#2A2620"/><path d="M504.2251,15.8399c-.3242.1802-.5215.1982-.7383.1982-1.0078,0-1.4941-.7202-1.4941-1.9448v-5.1675h-1.2969l-.0537-.1982.4863-.3779h.8643v-.9902l.6123-1.2246.252-.0176v2.2324h2.1611c.0352.0723.0537.144.0537.2158,0,.1265-.0537.2524-.1807.3604h-2.0342v4.6816c0,1.458.4863,1.7642,1.0801,1.7642.6123,0,1.0449-.252,1.2422-.3599l.1445.27-1.0986.5581Z" fill="#2A2620"/><path d="M508.2212,9.2501c0,.5039-.3418.8281-.8105.8281-.4492,0-.792-.3242-.792-.8281,0-.4502.3428-.8105.792-.8105.5049,0,.8105.4141.8105.8105ZM506.6372,15.2276c0-.4502.3418-.8281.792-.8281.4678,0,.8105.3779.8105.8281,0,.4863-.3428.8105-.8105.8105-.5039-.0181-.792-.3604-.792-.8105Z" fill="#2A2620"/><path d="M472.8862,37.1885c1.5127-.0723,1.6572-.3779,1.6572-1.6924v-7.3828c0-1.3145-.1445-1.6201-1.6572-1.6924v-.252h7.6523c0,.9727.0908,1.9092.1621,2.7725l-.3242.0361c-.3418-1.9082-.8096-2.376-2.8809-2.376h-1.5117c-.4688,0-.5049.0352-.5049.5039v4.375h2.0713c1.6924,0,1.8359-.1621,2.1426-1.3682h.3057v3.4932h-.3057c-.3066-1.4043-.4502-1.6211-2.1426-1.6211h-2.0713v3.5117c0,1.3145.1621,1.6025,1.9814,1.6924v.252h-4.5742v-.252Z" fill="#2A2620"/><path d="M490.0249,33.5508c0,2.7197-2.2324,4.0879-3.9609,4.0879-2.377,0-3.9971-1.8008-3.9971-3.7637,0-2.916,2.4482-4.123,3.9609-4.123,2.2686,0,3.9971,1.7109,3.9971,3.7988ZM483.2007,33.2813c0,2.3047,1.2061,3.9434,3.1152,3.9434,1.5127,0,2.6104-.9727,2.6104-3.4033,0-1.7461-1.0625-3.6367-3.0605-3.6367-1.6562,0-2.665,1.2959-2.665,3.0967Z" fill="#2A2620"/><path d="M499.4565,33.5508c0,2.7197-2.2324,4.0879-3.9609,4.0879-2.377,0-3.9971-1.8008-3.9971-3.7637,0-2.916,2.4482-4.123,3.9609-4.123,2.2686,0,3.9971,1.7109,3.9971,3.7988ZM492.6323,33.2813c0,2.3047,1.2061,3.9434,3.1152,3.9434,1.5127,0,2.6104-.9727,2.6104-3.4033,0-1.7461-1.0625-3.6367-3.0605-3.6367-1.6562,0-2.665,1.2959-2.665,3.0967Z" fill="#2A2620"/><path d="M504.1704,37.4405c-.3242.1797-.5215.1982-.7383.1982-1.0078,0-1.4941-.7207-1.4941-1.9443v-5.168h-1.2969l-.0537-.1982.4863-.3779h.8643v-.9902l.6123-1.2246.252-.0176v2.2324h2.1611c.0352.0723.0537.1436.0537.2158,0,.126-.0537.252-.1807.3604h-2.0342v4.6816c0,1.458.4863,1.7646,1.0801,1.7646.6123,0,1.0449-.252,1.2422-.3604l.1445.2695-1.0986.5586Z" fill="#2A2620"/><path d="M505.4839,37.1885c1.1523-.0723,1.332-.3242,1.332-1.4404v-8.4268c0-1.2422-.1436-1.3682-1.2959-1.4766v-.2158c.8818-.1084,1.8545-.4316,2.1602-.6123v10.7314c0,1.1162.1621,1.3682,1.3506,1.4404v.252h-3.5469v-.252Z" fill="#2A2620"/><path d="M509.8218,37.1885c1.1523-.0898,1.332-.3242,1.332-1.3682v-3.7451c0-1.1523-.126-1.2432-1.1523-1.4229v-.2344c.7559-.1621,1.332-.3594,2.0166-.7197v6.1221c0,1.0439.1797,1.2783,1.3506,1.3682v.252h-3.5469v-.252ZM512.2886,26.4932c0,.3779-.3066.7197-.6846.7197-.3604,0-.6846-.3418-.6846-.7197,0-.4326.3242-.7559.6846-.7559.4141,0,.6846.3779.6846.7559Z" fill="#2A2620"/><path d="M519.7231,30.7784c.3604.3779.6123.9902.6123,1.5303,0,1.8906-1.6924,2.791-2.9707,2.791-.1807,0-.3789-.0176-.6484-.0537-.4502.1621-1.0449.54-1.0449.918,0,.3418.415.666,1.1172.666.7559,0,1.458-.0713,2.1426-.0713,1.2422,0,2.5205.3594,2.5205,2.0166,0,1.6377-1.9629,3.4385-4.3213,3.4385-1.9805,0-3.0615-1.1523-3.0615-2.3047,0-.4502.1807-.7744.3604-1.0439.3604-.4141,1.1885-.9902,1.585-1.3145-.7383-.1621-1.5664-.792-1.4951-1.5488.5586-.1621,1.4053-.6484,1.6748-.9365-.8105-.2695-1.6387-1.1338-1.6387-2.1777,0-2.4492,2.7188-3.6191,4.5195-2.4854.918-.0723,1.6211-.1621,2.4131-.3057l.1074.1436c-.2158.2344-.5576.6299-.8096.7383h-1.0625ZM515.0952,39.3311c0,1.1338,1.0449,2.0527,2.5576,2.0527,2.0342,0,2.9707-1.1162,2.9707-2.377,0-.5762-.2881-1.0801-.7568-1.332-.5039-.2881-1.1162-.3066-2.1064-.3066-2.5742,0-2.665,1.6572-2.665,1.9629ZM515.6714,32.1651c0,1.6748.8291,2.5742,1.9453,2.5742.8096,0,1.6201-.5762,1.6201-2.1064,0-1.6201-.6484-2.5391-1.8721-2.5391-.9912.0186-1.6934.7207-1.6934,2.0713Z" fill="#2A2620"/><path d="M521.9536,37.1885c1.0986-.0723,1.2959-.3418,1.2959-1.459v-8.4619c0-1.1348-.1074-1.207-1.3496-1.4404v-.1982c.8096-.1445,1.7285-.4141,2.2139-.6123v6.1221c.7207-.7559,1.7471-1.3867,2.8096-1.3867,1.3857,0,2.4121.9004,2.4121,2.9707v3.0068c0,1.1348.1982,1.3867,1.2969,1.459v.252h-3.5293v-.252c1.2061-.0723,1.3682-.3418,1.3682-1.5664v-2.4668c0-1.6924-.5039-2.5928-2.2148-2.5928-.8457.0537-1.6377.4141-2.1426,1.0439v4.0156c0,1.2246.1807,1.4941,1.4229,1.5664v.252h-3.5654l-.0176-.252Z" fill="#2A2620"/><path d="M534.9146,37.4405c-.3242.1797-.5215.1982-.7383.1982-1.0078,0-1.4941-.7207-1.4941-1.9443v-5.168h-1.2969l-.0537-.1982.4863-.3779h.8643v-.9902l.6123-1.2246.252-.0176v2.2324h2.1611c.0352.0723.0537.1436.0537.2158,0,.126-.0537.252-.1807.3604h-2.0342v4.6816c0,1.458.4863,1.7646,1.0801,1.7646.6123,0,1.0449-.252,1.2422-.3604l.1445.2695-1.0986.5586Z" fill="#2A2620"/><path d="M540.6743,26.169h2.2861l4.7539,9.543,4.7705-9.543h2.5938v.252c-1.6748.1621-1.8369.3428-1.7646,2.1426l.126,6.3926c.0537,1.8545.126,2.0879,1.8184,2.2324v.252h-4.4111v-.252c1.584-.126,1.6377-.3604,1.6201-2.2324l-.0723-7.5625h-.0713l-4.8799,9.8486h-.1621l-4.4297-9.2363h-.0352l-.2344,4.8613c-.0537.8457-.0723,1.458-.0723,1.9443,0,1.7285.1797,2.2148,1.8545,2.377v.252h-4.3389v-.252c1.1162-.0898,1.4941-.3965,1.6387-1.1162.126-.54.2695-1.6211.3955-3.4756l.252-3.2949c.0186-.4863.0361-.8818.0361-1.2061,0-1.2783-.3057-1.5127-1.6738-1.6748v-.252Z" fill="#2A2620"/><path d="M558.8726,37.1885c1.8008-.0898,1.9268-.3965,1.9268-1.7646v-8.8223h-1.1172c-2.3584,0-2.5918.3955-3.1328,2.2861h-.2881c.1084-1.0625.1621-2.1426.1982-3.1504h.2881c.126.2158.252.3232.3965.3779.1436.0537.3242.0537.5762.0537h7.2559c.4678,0,.5947-.0898.8467-.4316l.3057.0176c-.0361.8467.0723,1.9805.1621,3.0605l-.3057.0723c-.4326-2.0342-1.1172-2.2861-2.6475-2.2861h-1.6025v8.8223c0,1.3682.126,1.6748,1.999,1.7646v.252h-4.8613v-.252Z" fill="#2A2620"/><path d="M579.6636,34.6319c-.126.5938-.5225,2.0166-.6484,2.8086h-7.832v-.252c1.5303-.0723,1.6562-.3779,1.6562-1.8906v-7.0762c0-1.4043-.126-1.7109-1.7285-1.8008v-.252h4.4658v.252c-1.6387.0898-1.8008.3965-1.8008,1.8008v6.8242c0,1.9082.4316,1.9619,2.2686,1.9619,1.0801,0,1.9443-.2158,2.3584-.6475.2344-.3242.6484-.9365.9365-1.7285h.3242Z" fill="#2A2620"/><path d="M580.4351,37.1885c1.1523-.0898,1.332-.3242,1.332-1.3682v-3.7451c0-1.1523-.126-1.2432-1.1523-1.4229v-.2344c.7559-.1621,1.332-.3594,2.0166-.7197v6.1221c0,1.0439.1797,1.2783,1.3506,1.3682v.252h-3.5469v-.252ZM582.9019,26.4932c0,.3779-.3066.7197-.6846.7197-.3604,0-.6846-.3418-.6846-.7197,0-.4326.3242-.7559.6846-.7559.4141,0,.6846.3779.6846.7559Z" fill="#2A2620"/><path d="M590.3364,30.7784c.3604.3779.6123.9902.6123,1.5303,0,1.8906-1.6924,2.791-2.9707,2.791-.1807,0-.3789-.0176-.6484-.0537-.4502.1621-1.0449.54-1.0449.918,0,.3418.415.666,1.1172.666.7559,0,1.458-.0713,2.1426-.0713,1.2422,0,2.5205.3594,2.5205,2.0166,0,1.6377-1.9629,3.4385-4.3213,3.4385-1.9805,0-3.0615-1.1523-3.0615-2.3047,0-.4502.1807-.7744.3604-1.0439.3604-.4141,1.1885-.9902,1.585-1.3145-.7383-.1621-1.5664-.792-1.4951-1.5488.5586-.1621,1.4053-.6484,1.6748-.9365-.8105-.2695-1.6387-1.1338-1.6387-2.1777,0-2.4492,2.7188-3.6191,4.5195-2.4854.918-.0723,1.6211-.1621,2.4131-.3057l.1074.1436c-.2158.2344-.5576.6299-.8096.7383h-1.0625ZM585.7085,39.3311c0,1.1338,1.0449,2.0527,2.5576,2.0527,2.0342,0,2.9707-1.1162,2.9707-2.377,0-.5762-.2881-1.0801-.7568-1.332-.5039-.2881-1.1162-.3066-2.1064-.3066-2.5742,0-2.665,1.6572-2.665,1.9629ZM586.2847,32.1651c0,1.6748.8291,2.5742,1.9453,2.5742.8096,0,1.6201-.5762,1.6201-2.1064,0-1.6201-.6484-2.5391-1.8721-2.5391-.9912.0186-1.6934.7207-1.6934,2.0713Z" fill="#2A2620"/><path d="M592.5669,37.1885c1.0986-.0723,1.2959-.3418,1.2959-1.459v-8.4619c0-1.1348-.1074-1.207-1.3496-1.4404v-.1982c.8096-.1445,1.7285-.4141,2.2139-.6123v6.1221c.7207-.7559,1.7471-1.3867,2.8096-1.3867,1.3857,0,2.4121.9004,2.4121,2.9707v3.0068c0,1.1348.1982,1.3867,1.2969,1.459v.252h-3.5293v-.252c1.2061-.0723,1.3682-.3418,1.3682-1.5664v-2.4668c0-1.6924-.5039-2.5928-2.2148-2.5928-.8457.0537-1.6377.4141-2.1426,1.0439v4.0156c0,1.2246.1807,1.4941,1.4229,1.5664v.252h-3.5654l-.0176-.252Z" fill="#2A2620"/><path d="M605.5278,37.4405c-.3242.1797-.5215.1982-.7383.1982-1.0078,0-1.4941-.7207-1.4941-1.9443v-5.168h-1.2969l-.0537-.1982.4863-.3779h.8643v-.9902l.6123-1.2246.252-.0176v2.2324h2.1611c.0352.0723.0537.1436.0537.2158,0,.126-.0537.252-.1807.3604h-2.0342v4.6816c0,1.458.4863,1.7646,1.0801,1.7646.6123,0,1.0449-.252,1.2422-.3604l.1445.2695-1.0986.5586Z" fill="#2A2620"/><path d="M477.6401,61.8673c-2.6826-1.6748-3.8535-4.4297-3.8535-7.5449,0-3.0781,1.1709-5.833,3.8535-7.5078l.1982.2695c-1.9805,1.4766-2.9707,4.2861-2.9707,7.2383,0,2.9717.9902,5.7803,2.9707,7.2744l-.1982.2705Z" fill="#2A2620"/><path d="M479.5288,58.7882c1.6025-.0723,1.7461-.3779,1.7461-1.8008v-7.2197c0-1.4229-.1436-1.6211-1.6562-1.7285v-.2705h4.249c1.7832,0,3.7275.54,3.7275,2.8447,0,1.5303-.8105,2.4307-2.1973,3.0615.2881.5576,1.0449,1.71,1.6025,2.4668.8643,1.0615,2.125,2.6104,3.043,2.8262l-.0537.2344c-1.6387,0-2.5029-.0898-5.2217-4.5371-.4502-.6484-.9902-.667-2.5205-.667v2.9893c0,1.4229.1436,1.7285,1.6924,1.8008v.252h-4.4111v-.252ZM483.3462,53.6387c1.0439,0,1.71-.1445,2.1963-.54.5938-.4688.9365-1.1885.9365-2.2148,0-1.9268-1.2432-2.7549-3.1152-2.7549-.4863,0-.792.0176-.9541.0361-.0898,0-.1621.0537-.1621.3955v5.0781h1.0986Z" fill="#2A2620"/><path d="M497.0259,57.6719c-1.0625,1.2246-2.2861,1.5664-2.7002,1.5664-2.125,0-3.4395-1.6924-3.4395-3.6016,0-2.6465,2.1611-4.2852,3.6191-4.2852,1.5488,0,2.665,1.2607,2.665,2.5391,0,.3604-.0186.4141-.3066.4678-.2881.0547-2.5928.252-5.0771.3242-.0186,2.7373,1.6201,3.709,2.8623,3.709.6123,0,1.2607-.126,2.1787-.9902l.1982.2705ZM491.895,54.1065c.4141,0,2.9521-.0361,3.7266-.0537.4502,0,.4502-.1807.4502-.2881,0-1.0088-.7559-1.9092-2.0527-1.9092-.9004,0-1.8545.793-2.124,2.251Z" fill="#2A2620"/><path d="M503.7397,52.378c.3604.3779.6123.9902.6123,1.5303,0,1.8906-1.6924,2.791-2.9707,2.791-.1807,0-.3789-.0176-.6484-.0537-.4502.1621-1.0449.54-1.0449.918,0,.3418.4141.666,1.1172.666.7559,0,1.458-.0713,2.1426-.0713,1.2422,0,2.5205.3594,2.5205,2.0166,0,1.6377-1.9629,3.4385-4.3213,3.4385-1.9805,0-3.0605-1.1523-3.0605-2.3047,0-.4502.1797-.7744.3594-1.0439.3604-.4141,1.1885-.9902,1.585-1.3145-.7383-.1621-1.5664-.792-1.4951-1.5488.5586-.1621,1.4053-.6484,1.6748-.9365-.8105-.2695-1.6387-1.1338-1.6387-2.1777,0-2.4492,2.7188-3.6191,4.5195-2.4854.918-.0723,1.6201-.1621,2.4131-.3057l.1074.1436c-.2158.2344-.5576.6299-.8096.7383h-1.0625ZM499.1118,60.9307c0,1.1338,1.0449,2.0527,2.5576,2.0527,2.0342,0,2.9707-1.1162,2.9707-2.377,0-.5762-.2881-1.0801-.7568-1.332-.5039-.2881-1.1162-.3066-2.1064-.3066-2.5742,0-2.665,1.6572-2.665,1.9629ZM499.688,53.7647c0,1.6748.8291,2.5742,1.9453,2.5742.8096,0,1.6201-.5762,1.6201-2.1064,0-1.6201-.6484-2.5391-1.8721-2.5391-.9902.0186-1.6934.7207-1.6934,2.0713Z" fill="#2A2620"/><path d="M508.2563,56.1417c0,1.7998.8643,2.2686,1.873,2.2686.7197,0,1.584-.3604,2.3408-1.1162v-3.9619c0-1.0625-.252-1.1338-.9004-1.2598l-.6846-.1084v-.1982c.7744-.0176,1.999-.1982,2.4492-.3242v5.8701c0,.9004.1982.9902.9004,1.0439l.54.0361v.252c-.7383.0908-1.5127.3604-2.2148.6123l-.0898-.0898v-1.3867c-.4688.3428-.9189.7383-1.5488,1.0625-.5225.3066-.9004.3965-1.3682.3965-1.0801,0-2.1611-.5586-2.1611-2.5566v-3.3311c0-1.0625-.2695-1.1523-.6475-1.2607l-.5762-.126v-.1797c.4141-.0361,1.7461-.252,2.1426-.3428-.0547.3604-.0547.9902-.0547,2.3408v2.3594Z" fill="#2A2620"/><path d="M515.2397,58.7882c1.1523-.0723,1.332-.3242,1.332-1.4404v-8.4268c0-1.2422-.1436-1.3682-1.2959-1.4766v-.2158c.8818-.1084,1.8545-.4316,2.1602-.6123v10.7314c0,1.1162.1621,1.3682,1.3506,1.4404v.252h-3.5469v-.252Z" fill="#2A2620"/><path d="M524.9966,59.2383c-.0352,0-.3955-.1445-.5762-.3242-.2158-.2344-.2881-.4502-.3955-.8467-.7021.54-1.5127,1.1709-2.1787,1.1709-1.2422,0-2.0889-.9365-2.0889-2.0527,0-.8105.5586-1.3867,1.8008-1.7646.918-.2705,2.0527-.7021,2.4668-.9541,0-.8828-.0186-2.4492-1.6387-2.4492-.2881.0186-1.2607.0908-1.5664,1.5312-.0361.126-.1445.3057-.3965.3057s-.54-.252-.54-.6123c0-.2695.2158-.4863.5039-.6484.4502-.3057,1.6572-1.0439,2.5391-1.2422.8828,0,1.999.5762,1.999,2.1611v3.8711c0,.7383.2695,1.0264.6475,1.0264.3066,0,.5947-.1084.793-.2344l.1621.3057-1.5312.7568ZM524.0249,54.9171c-.3779.2158-1.5127.6484-1.9092.8096-.8096.3066-1.2959.6484-1.2959,1.3145,0,.9365.7559,1.4229,1.4043,1.4229.6123,0,1.4229-.4502,1.8008-.918v-2.6289Z" fill="#2A2620"/><path d="M527.1372,58.7882c1.0986-.0723,1.2783-.3242,1.2783-1.459v-3.5283c0-1.3145-.126-1.4229-1.2422-1.5488v-.2158c.7383-.1445,1.458-.3604,2.1064-.7568v2.1973h.0361c.4316-.9727,1.4043-2.125,2.2861-2.125.541,0,.8828.4688.8828.7568,0,.3418-.3604.666-.6299.666-.0723,0-.126-.0186-.1621-.0898-.2705-.2529-.4141-.3789-.7568-.3789-.4863,0-1.1885.8105-1.6562,2.125v2.9346c0,1.1162.1621,1.3506,1.6025,1.4229v.252h-3.7451v-.252Z" fill="#2A2620"/><path d="M533.8872,46.8145c2.6826,1.6748,3.8535,4.4297,3.8535,7.5439,0,3.0791-1.1709,5.834-3.8535,7.5088l-.1982-.2705c1.9814-1.4766,2.9717-4.2852,2.9717-7.2383,0-2.9707-.9902-5.7793-2.9717-7.2744l.1982-.2695Z" fill="#2A2620"/></g></svg>