<?xml version="1.0" encoding="UTF-8"?>
<svg xmlns="http://www.w3.org/2000/svg" viewBox="0 205 460 630" role="img" aria-labelledby="logo-title logo-description">
  <title id="logo-title">N°55 Laboratorium</title>
  <desc id="logo-description">Compact N°55 monogram adapted from the original N°55 Laboratorium artwork.</desc>

  <!-- The original N° paths, enlarged for legibility at navigation size. -->
  <g fill="#2A2620" stroke="#2A2620" stroke-width="1.2" stroke-linejoin="round" transform="translate(-5 -365) scale(2)">
    <path d="M5.0205,328.4044h8.2603l5.6099,32.3311h.5547l-1.0273-32.3311h8.959v61.9268h-7.9316l-6.144-34.3828h-.3491l.9863,34.3828H5.0205v-61.9268Z"/>
    <path d="M31.8477,338.4341c0-2.9126,1.1162-5.395,3.3496-7.4468,2.2324-2.0513,4.9106-3.0771,8.0342-3.0771,3.1777,0,5.877,1.0259,8.0962,3.0771,2.2188,2.0518,3.3286,4.5342,3.3286,7.4468s-1.1167,5.4014-3.3496,7.4653c-2.2329,2.0645-4.9248,3.0962-8.0752,3.0962-3.1235,0-5.8018-1.0317-8.0342-3.0962-2.2334-2.064-3.3496-4.5527-3.3496-7.4653ZM36.3682,338.4151c0,1.7676.6738,3.2769,2.0225,4.5269,1.3477,1.25,2.9746,1.8745,4.8818,1.8745,1.8789,0,3.4927-.6245,4.8413-1.8745,1.3477-1.25,2.022-2.7593,2.022-4.5269s-.6743-3.2764-2.022-4.5264c-1.3486-1.2505-2.9624-1.8755-4.8413-1.8755-1.9072,0-3.5342.625-4.8818,1.8755-1.3486,1.25-2.0225,2.7583-2.0225,4.5264Z"/>
  </g>

  <!-- The original interlocking 55 geometry, strengthened for small-size use. -->
  <g fill="#2A2620" stroke="#2A2620" stroke-width="5.5" stroke-linecap="round" stroke-linejoin="round" paint-order="stroke fill">
    <polygon points="171.9169 437.5111 171.9169 450.1488 395.7999 450.1488 395.7999 586.263 418.3859 586.263 418.3859 437.5111 171.9169 437.5111"/>
    <path d="M378.0134,564.5845c-33.8179-28.063-62.6065-35.322-82.8621-36.6607-51.0747-3.3753-111.5621,26.6844-111.5655,26.6854,11.131-9.3475,53.1428-42.3402,113.8709-40.4668,38.1635,1.1775,66.5514,15.5949,80.5596,24.0398-.001,8.8009-.0019,17.6014-.0029,26.4023Z"/>
    <path d="M270.7139,543.1984c-63.9187,1.5043-118.4826,44.7744-132.8882,103.7543-13.9004,56.9114,13.4483,112.6541,53.7913,142.221,41.8343,30.6598,88.5126,26.4832,101.5024,24.8204,39.3853-5.0418,65.8999-24.9749,76.5653-33.9959-63.4538,36.5232-140.563,23.6477-181.3936-25.4093-30.446-36.5804-40.6074-93.1427-16.3743-141.1621,29.5302-58.5156,92.4251-69.2525,98.797-70.2285Z"/>
    <path d="M295.1513,829.4051c16.3274-.1534,51.1345-2.7908,86.6724-24.9407,11.5748-7.2143,50.3945-32.2318,67.2648-83.0485,11.6535-35.1026,7.2289-65.6323,4.1461-80.087-8.2048.2276-16.4097.4555-24.6145.6831,2.8643,13.1332,11.4241,60.0903-14.8221,107.9891-36.8151,67.1867-110.3688,78.2965-118.6467,79.4039Z"/>
    <polygon points="70.4552 212.4373 312.7344 212.4373 312.7344 231.2589 89.7474 231.2589 89.5122 399.5539 70.4552 399.5539 70.4552 212.4373"/>
    <path d="M83.8311,325.2204c9.9138-8.9556,52.5098-45.395,113.8709-42.5841,66.2585,3.0353,121.3203,50.321,141.1622,106.5776,15.3294,43.4625,5.8128,81.4372,2.8233,91.9906-18.2176,64.3143-72.4035,93.0512-82.1094,97.9905-11.2469,4.8969-66.5752,27.5957-127.1655,2.7732-41.8913-17.1618-64.0033-47.906-69.9912-56.7678-25.0011-37.0004-26.646-73.9611-26.5856-87.6894h19.7719c.0957,14.1004,2.3352,46.0447,23.6355,77.455,4.2479,6.264,36.0932,51.5925,95.2845,58.9352,10.107,1.2537,37.5276,3.4488,68.0079-9.5283,41.0875-17.493,80.2646-59.3744,84.8003-114.224,5.359-64.8048-39.2983-127.6529-103.171-143.7116-50.3576-12.6608-104.772,5.7449-140.334,46.7803v-27.9972Z"/>
  </g>
</svg>
