<svg xmlns="http://www.w3.org/2000/svg" width="1004" height="650" viewBox="0 0 1004 650">
  <rect width="1004" height="650" fill="#EFE7D2"/>
  <g stroke="#E0D8C2" stroke-width="1"><line x1="0" y1="0" x2="0" y2="650"/><line x1="126" y1="0" x2="126" y2="650"/><line x1="252" y1="0" x2="252" y2="650"/><line x1="378" y1="0" x2="378" y2="650"/><line x1="504" y1="0" x2="504" y2="650"/><line x1="630" y1="0" x2="630" y2="650"/><line x1="756" y1="0" x2="756" y2="650"/><line x1="882" y1="0" x2="882" y2="650"/><line x1="0" y1="0" x2="1004" y2="0"/><line x1="0" y1="126" x2="1004" y2="126"/><line x1="0" y1="252" x2="1004" y2="252"/><line x1="0" y1="378" x2="1004" y2="378"/><line x1="0" y1="504" x2="1004" y2="504"/><line x1="0" y1="630" x2="1004" y2="630"/></g>
  <rect x="30" y="30" width="944" height="590" fill="none" stroke="#D4C8AC"/>
  <rect x="54" y="54" width="504" height="542" fill="#E4E8DF" stroke="#B9C5B5"/>
  <line x1="54" y1="198" x2="558" y2="198" stroke="#B9C5B5"/><line x1="54" y1="450" x2="558" y2="450" stroke="#B9C5B5"/>
  <text x="86" y="126" font-family="Georgia, serif" font-size="42" fill="#2A2620">N?55</text>
  <text x="88" y="151" font-family="Arial, sans-serif" font-size="13" font-weight="700" letter-spacing="4" fill="#2A2620">LABORATORIUM</text>
  <text x="86" y="274" font-family="Arial, sans-serif" font-size="44" font-weight="700" fill="#2A2620"><tspan x="86" dy="0">Scan to explore</tspan><tspan x="86" dy="54">the routine.</tspan></text>
  <text x="86" y="372" font-family="Arial, sans-serif" font-size="20" fill="#3D3327"><tspan x="86" dy="0">Fragrance-free skincare for sensitive</tspan><tspan x="86" dy="27">routines, formulated in Australia.</tspan></text>
  <text x="86" y="493" font-family="Arial, sans-serif" font-size="13" font-weight="700" fill="#31594D">START SIMPLE</text>
  <text x="86" y="530" font-family="Arial, sans-serif" font-size="15" fill="#3D3327"><tspan x="86" dy="0">Rens + Tidl?s Hud first.</tspan><tspan x="86" dy="22">Add toner or serum only when ready.</tspan></text>
  <rect x="652" y="128" width="280" height="280" fill="#FAF8F3" stroke="#D4C8AC"/>
  <g><rect x="699.58" y="175.58" width="7.44" height="7.44" fill="#2A2620"/><rect x="706.97" y="175.58" width="7.44" height="7.44" fill="#2A2620"/><rect x="714.36" y="175.58" width="7.44" height="7.44" fill="#2A2620"/><rect x="721.76" y="175.58" width="7.44" height="7.44" fill="#2A2620"/><rect x="729.15" y="175.58" width="7.44" height="7.44" fill="#2A2620"/><rect x="736.55" y="175.58" width="7.44" height="7.44" fill="#2A2620"/><rect x="743.94" y="175.58" width="7.44" height="7.44" fill="#2A2620"/><rect x="758.73" y="175.58" width="7.44" height="7.44" fill="#2A2620"/><rect x="766.12" y="175.58" width="7.44" height="7.44" fill="#2A2620"/><rect x="773.52" y="175.58" width="7.44" height="7.44" fill="#2A2620"/><rect x="780.91" y="175.58" width="7.44" height="7.44" fill="#2A2620"/><rect x="803.09" y="175.58" width="7.44" height="7.44" fill="#2A2620"/><rect x="832.67" y="175.58" width="7.44" height="7.44" fill="#2A2620"/><rect x="840.06" y="175.58" width="7.44" height="7.44" fill="#2A2620"/><rect x="847.45" y="175.58" width="7.44" height="7.44" fill="#2A2620"/><rect x="854.85" y="175.58" width="7.44" height="7.44" fill="#2A2620"/><rect x="862.24" y="175.58" width="7.44" height="7.44" fill="#2A2620"/><rect x="869.64" y="175.58" width="7.44" height="7.44" fill="#2A2620"/><rect x="877.03" y="175.58" width="7.44" height="7.44" fill="#2A2620"/><rect x="699.58" y="182.97" width="7.44" height="7.44" fill="#2A2620"/><rect x="743.94" y="182.97" width="7.44" height="7.44" fill="#2A2620"/><rect x="780.91" y="182.97" width="7.44" height="7.44" fill="#2A2620"/><rect x="788.30" y="182.97" width="7.44" height="7.44" fill="#2A2620"/><rect x="795.70" y="182.97" width="7.44" height="7.44" fill="#2A2620"/><rect x="817.88" y="182.97" width="7.44" height="7.44" fill="#2A2620"/><rect x="832.67" y="182.97" width="7.44" height="7.44" fill="#2A2620"/><rect x="877.03" y="182.97" width="7.44" height="7.44" fill="#2A2620"/><rect x="699.58" y="190.36" width="7.44" height="7.44" fill="#2A2620"/><rect x="714.36" y="190.36" width="7.44" height="7.44" fill="#2A2620"/><rect x="721.76" y="190.36" width="7.44" height="7.44" fill="#2A2620"/><rect x="729.15" y="190.36" width="7.44" height="7.44" fill="#2A2620"/><rect x="743.94" y="190.36" width="7.44" height="7.44" fill="#2A2620"/><rect x="766.12" y="190.36" width="7.44" height="7.44" fill="#2A2620"/><rect x="780.91" y="190.36" width="7.44" height="7.44" fill="#2A2620"/><rect x="795.70" y="190.36" width="7.44" height="7.44" fill="#2A2620"/><rect x="803.09" y="190.36" width="7.44" height="7.44" fill="#2A2620"/><rect x="832.67" y="190.36" width="7.44" height="7.44" fill="#2A2620"/><rect x="847.45" y="190.36" width="7.44" height="7.44" fill="#2A2620"/><rect x="854.85" y="190.36" width="7.44" height="7.44" fill="#2A2620"/><rect x="862.24" y="190.36" width="7.44" height="7.44" fill="#2A2620"/><rect x="877.03" y="190.36" width="7.44" height="7.44" fill="#2A2620"/><rect x="699.58" y="197.76" width="7.44" height="7.44" fill="#2A2620"/><rect x="714.36" y="197.76" width="7.44" height="7.44" fill="#2A2620"/><rect x="721.76" y="197.76" width="7.44" height="7.44" fill="#2A2620"/><rect x="729.15" y="197.76" width="7.44" height="7.44" fill="#2A2620"/><rect x="743.94" y="197.76" width="7.44" height="7.44" fill="#2A2620"/><rect x="773.52" y="197.76" width="7.44" height="7.44" fill="#2A2620"/><rect x="780.91" y="197.76" width="7.44" height="7.44" fill="#2A2620"/><rect x="803.09" y="197.76" width="7.44" height="7.44" fill="#2A2620"/><rect x="810.48" y="197.76" width="7.44" height="7.44" fill="#2A2620"/><rect x="817.88" y="197.76" width="7.44" height="7.44" fill="#2A2620"/><rect x="832.67" y="197.76" width="7.44" height="7.44" fill="#2A2620"/><rect x="847.45" y="197.76" width="7.44" height="7.44" fill="#2A2620"/><rect x="854.85" y="197.76" width="7.44" height="7.44" fill="#2A2620"/><rect x="862.24" y="197.76" width="7.44" height="7.44" fill="#2A2620"/><rect x="877.03" y="197.76" width="7.44" height="7.44" fill="#2A2620"/><rect x="699.58" y="205.15" width="7.44" height="7.44" fill="#2A2620"/><rect x="714.36" y="205.15" width="7.44" height="7.44" fill="#2A2620"/><rect x="721.76" y="205.15" width="7.44" height="7.44" fill="#2A2620"/><rect x="729.15" y="205.15" width="7.44" height="7.44" fill="#2A2620"/><rect x="743.94" y="205.15" width="7.44" height="7.44" fill="#2A2620"/><rect x="773.52" y="205.15" width="7.44" height="7.44" fill="#2A2620"/><rect x="780.91" y="205.15" width="7.44" height="7.44" fill="#2A2620"/><rect x="788.30" y="205.15" width="7.44" height="7.44" fill="#2A2620"/><rect x="795.70" y="205.15" width="7.44" height="7.44" fill="#2A2620"/><rect x="803.09" y="205.15" width="7.44" height="7.44" fill="#2A2620"/><rect x="817.88" y="205.15" width="7.44" height="7.44" fill="#2A2620"/><rect x="832.67" y="205.15" width="7.44" height="7.44" fill="#2A2620"/><rect x="847.45" y="205.15" width="7.44" height="7.44" fill="#2A2620"/><rect x="854.85" y="205.15" width="7.44" height="7.44" fill="#2A2620"/><rect x="862.24" y="205.15" width="7.44" height="7.44" fill="#2A2620"/><rect x="877.03" y="205.15" width="7.44" height="7.44" fill="#2A2620"/><rect x="699.58" y="212.55" width="7.44" height="7.44" fill="#2A2620"/><rect x="743.94" y="212.55" width="7.44" height="7.44" fill="#2A2620"/><rect x="766.12" y="212.55" width="7.44" height="7.44" fill="#2A2620"/><rect x="780.91" y="212.55" width="7.44" height="7.44" fill="#2A2620"/><rect x="795.70" y="212.55" width="7.44" height="7.44" fill="#2A2620"/><rect x="803.09" y="212.55" width="7.44" height="7.44" fill="#2A2620"/><rect x="832.67" y="212.55" width="7.44" height="7.44" fill="#2A2620"/><rect x="877.03" y="212.55" width="7.44" height="7.44" fill="#2A2620"/><rect x="699.58" y="219.94" width="7.44" height="7.44" fill="#2A2620"/><rect x="706.97" y="219.94" width="7.44" height="7.44" fill="#2A2620"/><rect x="714.36" y="219.94" width="7.44" height="7.44" fill="#2A2620"/><rect x="721.76" y="219.94" width="7.44" height="7.44" fill="#2A2620"/><rect x="729.15" y="219.94" width="7.44" height="7.44" fill="#2A2620"/><rect x="736.55" y="219.94" width="7.44" height="7.44" fill="#2A2620"/><rect x="743.94" y="219.94" width="7.44" height="7.44" fill="#2A2620"/><rect x="758.73" y="219.94" width="7.44" height="7.44" fill="#2A2620"/><rect x="773.52" y="219.94" width="7.44" height="7.44" fill="#2A2620"/><rect x="788.30" y="219.94" width="7.44" height="7.44" fill="#2A2620"/><rect x="803.09" y="219.94" width="7.44" height="7.44" fill="#2A2620"/><rect x="817.88" y="219.94" width="7.44" height="7.44" fill="#2A2620"/><rect x="832.67" y="219.94" width="7.44" height="7.44" fill="#2A2620"/><rect x="840.06" y="219.94" width="7.44" height="7.44" fill="#2A2620"/><rect x="847.45" y="219.94" width="7.44" height="7.44" fill="#2A2620"/><rect x="854.85" y="219.94" width="7.44" height="7.44" fill="#2A2620"/><rect x="862.24" y="219.94" width="7.44" height="7.44" fill="#2A2620"/><rect x="869.64" y="219.94" width="7.44" height="7.44" fill="#2A2620"/><rect x="877.03" y="219.94" width="7.44" height="7.44" fill="#2A2620"/><rect x="758.73" y="227.33" width="7.44" height="7.44" fill="#2A2620"/><rect x="766.12" y="227.33" width="7.44" height="7.44" fill="#2A2620"/><rect x="788.30" y="227.33" width="7.44" height="7.44" fill="#2A2620"/><rect x="803.09" y="227.33" width="7.44" height="7.44" fill="#2A2620"/><rect x="810.48" y="227.33" width="7.44" height="7.44" fill="#2A2620"/><rect x="699.58" y="234.73" width="7.44" height="7.44" fill="#2A2620"/><rect x="706.97" y="234.73" width="7.44" height="7.44" fill="#2A2620"/><rect x="721.76" y="234.73" width="7.44" height="7.44" fill="#2A2620"/><rect x="729.15" y="234.73" width="7.44" height="7.44" fill="#2A2620"/><rect x="743.94" y="234.73" width="7.44" height="7.44" fill="#2A2620"/><rect x="766.12" y="234.73" width="7.44" height="7.44" fill="#2A2620"/><rect x="788.30" y="234.73" width="7.44" height="7.44" fill="#2A2620"/><rect x="795.70" y="234.73" width="7.44" height="7.44" fill="#2A2620"/><rect x="803.09" y="234.73" width="7.44" height="7.44" fill="#2A2620"/><rect x="810.48" y="234.73" width="7.44" height="7.44" fill="#2A2620"/><rect x="817.88" y="234.73" width="7.44" height="7.44" fill="#2A2620"/><rect x="832.67" y="234.73" width="7.44" height="7.44" fill="#2A2620"/><rect x="877.03" y="234.73" width="7.44" height="7.44" fill="#2A2620"/><rect x="706.97" y="242.12" width="7.44" height="7.44" fill="#2A2620"/><rect x="721.76" y="242.12" width="7.44" height="7.44" fill="#2A2620"/><rect x="736.55" y="242.12" width="7.44" height="7.44" fill="#2A2620"/><rect x="758.73" y="242.12" width="7.44" height="7.44" fill="#2A2620"/><rect x="773.52" y="242.12" width="7.44" height="7.44" fill="#2A2620"/><rect x="803.09" y="242.12" width="7.44" height="7.44" fill="#2A2620"/><rect x="810.48" y="242.12" width="7.44" height="7.44" fill="#2A2620"/><rect x="825.27" y="242.12" width="7.44" height="7.44" fill="#2A2620"/><rect x="847.45" y="242.12" width="7.44" height="7.44" fill="#2A2620"/><rect x="854.85" y="242.12" width="7.44" height="7.44" fill="#2A2620"/><rect x="862.24" y="242.12" width="7.44" height="7.44" fill="#2A2620"/><rect x="869.64" y="242.12" width="7.44" height="7.44" fill="#2A2620"/><rect x="699.58" y="249.52" width="7.44" height="7.44" fill="#2A2620"/><rect x="706.97" y="249.52" width="7.44" height="7.44" fill="#2A2620"/><rect x="714.36" y="249.52" width="7.44" height="7.44" fill="#2A2620"/><rect x="721.76" y="249.52" width="7.44" height="7.44" fill="#2A2620"/><rect x="743.94" y="249.52" width="7.44" height="7.44" fill="#2A2620"/><rect x="758.73" y="249.52" width="7.44" height="7.44" fill="#2A2620"/><rect x="766.12" y="249.52" width="7.44" height="7.44" fill="#2A2620"/><rect x="788.30" y="249.52" width="7.44" height="7.44" fill="#2A2620"/><rect x="803.09" y="249.52" width="7.44" height="7.44" fill="#2A2620"/><rect x="810.48" y="249.52" width="7.44" height="7.44" fill="#2A2620"/><rect x="832.67" y="249.52" width="7.44" height="7.44" fill="#2A2620"/><rect x="854.85" y="249.52" width="7.44" height="7.44" fill="#2A2620"/><rect x="877.03" y="249.52" width="7.44" height="7.44" fill="#2A2620"/><rect x="699.58" y="256.91" width="7.44" height="7.44" fill="#2A2620"/><rect x="706.97" y="256.91" width="7.44" height="7.44" fill="#2A2620"/><rect x="714.36" y="256.91" width="7.44" height="7.44" fill="#2A2620"/><rect x="721.76" y="256.91" width="7.44" height="7.44" fill="#2A2620"/><rect x="736.55" y="256.91" width="7.44" height="7.44" fill="#2A2620"/><rect x="758.73" y="256.91" width="7.44" height="7.44" fill="#2A2620"/><rect x="803.09" y="256.91" width="7.44" height="7.44" fill="#2A2620"/><rect x="810.48" y="256.91" width="7.44" height="7.44" fill="#2A2620"/><rect x="832.67" y="256.91" width="7.44" height="7.44" fill="#2A2620"/><rect x="840.06" y="256.91" width="7.44" height="7.44" fill="#2A2620"/><rect x="847.45" y="256.91" width="7.44" height="7.44" fill="#2A2620"/><rect x="854.85" y="256.91" width="7.44" height="7.44" fill="#2A2620"/><rect x="862.24" y="256.91" width="7.44" height="7.44" fill="#2A2620"/><rect x="869.64" y="256.91" width="7.44" height="7.44" fill="#2A2620"/><rect x="877.03" y="256.91" width="7.44" height="7.44" fill="#2A2620"/><rect x="699.58" y="264.30" width="7.44" height="7.44" fill="#2A2620"/><rect x="706.97" y="264.30" width="7.44" height="7.44" fill="#2A2620"/><rect x="714.36" y="264.30" width="7.44" height="7.44" fill="#2A2620"/><rect x="729.15" y="264.30" width="7.44" height="7.44" fill="#2A2620"/><rect x="736.55" y="264.30" width="7.44" height="7.44" fill="#2A2620"/><rect x="743.94" y="264.30" width="7.44" height="7.44" fill="#2A2620"/><rect x="751.33" y="264.30" width="7.44" height="7.44" fill="#2A2620"/><rect x="766.12" y="264.30" width="7.44" height="7.44" fill="#2A2620"/><rect x="773.52" y="264.30" width="7.44" height="7.44" fill="#2A2620"/><rect x="795.70" y="264.30" width="7.44" height="7.44" fill="#2A2620"/><rect x="803.09" y="264.30" width="7.44" height="7.44" fill="#2A2620"/><rect x="817.88" y="264.30" width="7.44" height="7.44" fill="#2A2620"/><rect x="825.27" y="264.30" width="7.44" height="7.44" fill="#2A2620"/><rect x="832.67" y="264.30" width="7.44" height="7.44" fill="#2A2620"/><rect x="840.06" y="264.30" width="7.44" height="7.44" fill="#2A2620"/><rect x="877.03" y="264.30" width="7.44" height="7.44" fill="#2A2620"/><rect x="699.58" y="271.70" width="7.44" height="7.44" fill="#2A2620"/><rect x="714.36" y="271.70" width="7.44" height="7.44" fill="#2A2620"/><rect x="729.15" y="271.70" width="7.44" height="7.44" fill="#2A2620"/><rect x="766.12" y="271.70" width="7.44" height="7.44" fill="#2A2620"/><rect x="773.52" y="271.70" width="7.44" height="7.44" fill="#2A2620"/><rect x="788.30" y="271.70" width="7.44" height="7.44" fill="#2A2620"/><rect x="810.48" y="271.70" width="7.44" height="7.44" fill="#2A2620"/><rect x="825.27" y="271.70" width="7.44" height="7.44" fill="#2A2620"/><rect x="847.45" y="271.70" width="7.44" height="7.44" fill="#2A2620"/><rect x="869.64" y="271.70" width="7.44" height="7.44" fill="#2A2620"/><rect x="699.58" y="279.09" width="7.44" height="7.44" fill="#2A2620"/><rect x="706.97" y="279.09" width="7.44" height="7.44" fill="#2A2620"/><rect x="714.36" y="279.09" width="7.44" height="7.44" fill="#2A2620"/><rect x="729.15" y="279.09" width="7.44" height="7.44" fill="#2A2620"/><rect x="736.55" y="279.09" width="7.44" height="7.44" fill="#2A2620"/><rect x="743.94" y="279.09" width="7.44" height="7.44" fill="#2A2620"/><rect x="773.52" y="279.09" width="7.44" height="7.44" fill="#2A2620"/><rect x="803.09" y="279.09" width="7.44" height="7.44" fill="#2A2620"/><rect x="810.48" y="279.09" width="7.44" height="7.44" fill="#2A2620"/><rect x="817.88" y="279.09" width="7.44" height="7.44" fill="#2A2620"/><rect x="825.27" y="279.09" width="7.44" height="7.44" fill="#2A2620"/><rect x="832.67" y="279.09" width="7.44" height="7.44" fill="#2A2620"/><rect x="847.45" y="279.09" width="7.44" height="7.44" fill="#2A2620"/><rect x="854.85" y="279.09" width="7.44" height="7.44" fill="#2A2620"/><rect x="862.24" y="279.09" width="7.44" height="7.44" fill="#2A2620"/><rect x="869.64" y="279.09" width="7.44" height="7.44" fill="#2A2620"/><rect x="877.03" y="279.09" width="7.44" height="7.44" fill="#2A2620"/><rect x="699.58" y="286.48" width="7.44" height="7.44" fill="#2A2620"/><rect x="714.36" y="286.48" width="7.44" height="7.44" fill="#2A2620"/><rect x="721.76" y="286.48" width="7.44" height="7.44" fill="#2A2620"/><rect x="736.55" y="286.48" width="7.44" height="7.44" fill="#2A2620"/><rect x="751.33" y="286.48" width="7.44" height="7.44" fill="#2A2620"/><rect x="758.73" y="286.48" width="7.44" height="7.44" fill="#2A2620"/><rect x="766.12" y="286.48" width="7.44" height="7.44" fill="#2A2620"/><rect x="788.30" y="286.48" width="7.44" height="7.44" fill="#2A2620"/><rect x="795.70" y="286.48" width="7.44" height="7.44" fill="#2A2620"/><rect x="803.09" y="286.48" width="7.44" height="7.44" fill="#2A2620"/><rect x="810.48" y="286.48" width="7.44" height="7.44" fill="#2A2620"/><rect x="817.88" y="286.48" width="7.44" height="7.44" fill="#2A2620"/><rect x="825.27" y="286.48" width="7.44" height="7.44" fill="#2A2620"/><rect x="832.67" y="286.48" width="7.44" height="7.44" fill="#2A2620"/><rect x="840.06" y="286.48" width="7.44" height="7.44" fill="#2A2620"/><rect x="854.85" y="286.48" width="7.44" height="7.44" fill="#2A2620"/><rect x="862.24" y="286.48" width="7.44" height="7.44" fill="#2A2620"/><rect x="877.03" y="286.48" width="7.44" height="7.44" fill="#2A2620"/><rect x="699.58" y="293.88" width="7.44" height="7.44" fill="#2A2620"/><rect x="714.36" y="293.88" width="7.44" height="7.44" fill="#2A2620"/><rect x="729.15" y="293.88" width="7.44" height="7.44" fill="#2A2620"/><rect x="743.94" y="293.88" width="7.44" height="7.44" fill="#2A2620"/><rect x="766.12" y="293.88" width="7.44" height="7.44" fill="#2A2620"/><rect x="780.91" y="293.88" width="7.44" height="7.44" fill="#2A2620"/><rect x="788.30" y="293.88" width="7.44" height="7.44" fill="#2A2620"/><rect x="810.48" y="293.88" width="7.44" height="7.44" fill="#2A2620"/><rect x="817.88" y="293.88" width="7.44" height="7.44" fill="#2A2620"/><rect x="825.27" y="293.88" width="7.44" height="7.44" fill="#2A2620"/><rect x="832.67" y="293.88" width="7.44" height="7.44" fill="#2A2620"/><rect x="840.06" y="293.88" width="7.44" height="7.44" fill="#2A2620"/><rect x="847.45" y="293.88" width="7.44" height="7.44" fill="#2A2620"/><rect x="862.24" y="293.88" width="7.44" height="7.44" fill="#2A2620"/><rect x="869.64" y="293.88" width="7.44" height="7.44" fill="#2A2620"/><rect x="758.73" y="301.27" width="7.44" height="7.44" fill="#2A2620"/><rect x="766.12" y="301.27" width="7.44" height="7.44" fill="#2A2620"/><rect x="780.91" y="301.27" width="7.44" height="7.44" fill="#2A2620"/><rect x="817.88" y="301.27" width="7.44" height="7.44" fill="#2A2620"/><rect x="847.45" y="301.27" width="7.44" height="7.44" fill="#2A2620"/><rect x="862.24" y="301.27" width="7.44" height="7.44" fill="#2A2620"/><rect x="869.64" y="301.27" width="7.44" height="7.44" fill="#2A2620"/><rect x="699.58" y="308.67" width="7.44" height="7.44" fill="#2A2620"/><rect x="706.97" y="308.67" width="7.44" height="7.44" fill="#2A2620"/><rect x="714.36" y="308.67" width="7.44" height="7.44" fill="#2A2620"/><rect x="721.76" y="308.67" width="7.44" height="7.44" fill="#2A2620"/><rect x="729.15" y="308.67" width="7.44" height="7.44" fill="#2A2620"/><rect x="736.55" y="308.67" width="7.44" height="7.44" fill="#2A2620"/><rect x="743.94" y="308.67" width="7.44" height="7.44" fill="#2A2620"/><rect x="773.52" y="308.67" width="7.44" height="7.44" fill="#2A2620"/><rect x="788.30" y="308.67" width="7.44" height="7.44" fill="#2A2620"/><rect x="795.70" y="308.67" width="7.44" height="7.44" fill="#2A2620"/><rect x="803.09" y="308.67" width="7.44" height="7.44" fill="#2A2620"/><rect x="817.88" y="308.67" width="7.44" height="7.44" fill="#2A2620"/><rect x="832.67" y="308.67" width="7.44" height="7.44" fill="#2A2620"/><rect x="847.45" y="308.67" width="7.44" height="7.44" fill="#2A2620"/><rect x="877.03" y="308.67" width="7.44" height="7.44" fill="#2A2620"/><rect x="699.58" y="316.06" width="7.44" height="7.44" fill="#2A2620"/><rect x="743.94" y="316.06" width="7.44" height="7.44" fill="#2A2620"/><rect x="780.91" y="316.06" width="7.44" height="7.44" fill="#2A2620"/><rect x="795.70" y="316.06" width="7.44" height="7.44" fill="#2A2620"/><rect x="810.48" y="316.06" width="7.44" height="7.44" fill="#2A2620"/><rect x="817.88" y="316.06" width="7.44" height="7.44" fill="#2A2620"/><rect x="847.45" y="316.06" width="7.44" height="7.44" fill="#2A2620"/><rect x="699.58" y="323.45" width="7.44" height="7.44" fill="#2A2620"/><rect x="714.36" y="323.45" width="7.44" height="7.44" fill="#2A2620"/><rect x="721.76" y="323.45" width="7.44" height="7.44" fill="#2A2620"/><rect x="729.15" y="323.45" width="7.44" height="7.44" fill="#2A2620"/><rect x="743.94" y="323.45" width="7.44" height="7.44" fill="#2A2620"/><rect x="758.73" y="323.45" width="7.44" height="7.44" fill="#2A2620"/><rect x="773.52" y="323.45" width="7.44" height="7.44" fill="#2A2620"/><rect x="780.91" y="323.45" width="7.44" height="7.44" fill="#2A2620"/><rect x="795.70" y="323.45" width="7.44" height="7.44" fill="#2A2620"/><rect x="810.48" y="323.45" width="7.44" height="7.44" fill="#2A2620"/><rect x="817.88" y="323.45" width="7.44" height="7.44" fill="#2A2620"/><rect x="825.27" y="323.45" width="7.44" height="7.44" fill="#2A2620"/><rect x="832.67" y="323.45" width="7.44" height="7.44" fill="#2A2620"/><rect x="840.06" y="323.45" width="7.44" height="7.44" fill="#2A2620"/><rect x="847.45" y="323.45" width="7.44" height="7.44" fill="#2A2620"/><rect x="877.03" y="323.45" width="7.44" height="7.44" fill="#2A2620"/><rect x="699.58" y="330.85" width="7.44" height="7.44" fill="#2A2620"/><rect x="714.36" y="330.85" width="7.44" height="7.44" fill="#2A2620"/><rect x="721.76" y="330.85" width="7.44" height="7.44" fill="#2A2620"/><rect x="729.15" y="330.85" width="7.44" height="7.44" fill="#2A2620"/><rect x="743.94" y="330.85" width="7.44" height="7.44" fill="#2A2620"/><rect x="758.73" y="330.85" width="7.44" height="7.44" fill="#2A2620"/><rect x="766.12" y="330.85" width="7.44" height="7.44" fill="#2A2620"/><rect x="788.30" y="330.85" width="7.44" height="7.44" fill="#2A2620"/><rect x="795.70" y="330.85" width="7.44" height="7.44" fill="#2A2620"/><rect x="810.48" y="330.85" width="7.44" height="7.44" fill="#2A2620"/><rect x="817.88" y="330.85" width="7.44" height="7.44" fill="#2A2620"/><rect x="825.27" y="330.85" width="7.44" height="7.44" fill="#2A2620"/><rect x="832.67" y="330.85" width="7.44" height="7.44" fill="#2A2620"/><rect x="869.64" y="330.85" width="7.44" height="7.44" fill="#2A2620"/><rect x="877.03" y="330.85" width="7.44" height="7.44" fill="#2A2620"/><rect x="699.58" y="338.24" width="7.44" height="7.44" fill="#2A2620"/><rect x="714.36" y="338.24" width="7.44" height="7.44" fill="#2A2620"/><rect x="721.76" y="338.24" width="7.44" height="7.44" fill="#2A2620"/><rect x="729.15" y="338.24" width="7.44" height="7.44" fill="#2A2620"/><rect x="743.94" y="338.24" width="7.44" height="7.44" fill="#2A2620"/><rect x="773.52" y="338.24" width="7.44" height="7.44" fill="#2A2620"/><rect x="780.91" y="338.24" width="7.44" height="7.44" fill="#2A2620"/><rect x="795.70" y="338.24" width="7.44" height="7.44" fill="#2A2620"/><rect x="810.48" y="338.24" width="7.44" height="7.44" fill="#2A2620"/><rect x="825.27" y="338.24" width="7.44" height="7.44" fill="#2A2620"/><rect x="847.45" y="338.24" width="7.44" height="7.44" fill="#2A2620"/><rect x="854.85" y="338.24" width="7.44" height="7.44" fill="#2A2620"/><rect x="862.24" y="338.24" width="7.44" height="7.44" fill="#2A2620"/><rect x="869.64" y="338.24" width="7.44" height="7.44" fill="#2A2620"/><rect x="877.03" y="338.24" width="7.44" height="7.44" fill="#2A2620"/><rect x="699.58" y="345.64" width="7.44" height="7.44" fill="#2A2620"/><rect x="743.94" y="345.64" width="7.44" height="7.44" fill="#2A2620"/><rect x="758.73" y="345.64" width="7.44" height="7.44" fill="#2A2620"/><rect x="773.52" y="345.64" width="7.44" height="7.44" fill="#2A2620"/><rect x="780.91" y="345.64" width="7.44" height="7.44" fill="#2A2620"/><rect x="788.30" y="345.64" width="7.44" height="7.44" fill="#2A2620"/><rect x="795.70" y="345.64" width="7.44" height="7.44" fill="#2A2620"/><rect x="840.06" y="345.64" width="7.44" height="7.44" fill="#2A2620"/><rect x="847.45" y="345.64" width="7.44" height="7.44" fill="#2A2620"/><rect x="862.24" y="345.64" width="7.44" height="7.44" fill="#2A2620"/><rect x="869.64" y="345.64" width="7.44" height="7.44" fill="#2A2620"/><rect x="877.03" y="345.64" width="7.44" height="7.44" fill="#2A2620"/><rect x="699.58" y="353.03" width="7.44" height="7.44" fill="#2A2620"/><rect x="706.97" y="353.03" width="7.44" height="7.44" fill="#2A2620"/><rect x="714.36" y="353.03" width="7.44" height="7.44" fill="#2A2620"/><rect x="721.76" y="353.03" width="7.44" height="7.44" fill="#2A2620"/><rect x="729.15" y="353.03" width="7.44" height="7.44" fill="#2A2620"/><rect x="736.55" y="353.03" width="7.44" height="7.44" fill="#2A2620"/><rect x="743.94" y="353.03" width="7.44" height="7.44" fill="#2A2620"/><rect x="758.73" y="353.03" width="7.44" height="7.44" fill="#2A2620"/><rect x="766.12" y="353.03" width="7.44" height="7.44" fill="#2A2620"/><rect x="773.52" y="353.03" width="7.44" height="7.44" fill="#2A2620"/><rect x="780.91" y="353.03" width="7.44" height="7.44" fill="#2A2620"/><rect x="788.30" y="353.03" width="7.44" height="7.44" fill="#2A2620"/><rect x="795.70" y="353.03" width="7.44" height="7.44" fill="#2A2620"/><rect x="817.88" y="353.03" width="7.44" height="7.44" fill="#2A2620"/><rect x="825.27" y="353.03" width="7.44" height="7.44" fill="#2A2620"/><rect x="832.67" y="353.03" width="7.44" height="7.44" fill="#2A2620"/><rect x="854.85" y="353.03" width="7.44" height="7.44" fill="#2A2620"/><rect x="877.03" y="353.03" width="7.44" height="7.44" fill="#2A2620"/></g>
  <text x="684" y="456" font-family="Georgia, serif" font-size="25" fill="#2A2620">n55lab.com</text>
  <line x1="670" y1="468" x2="914" y2="468" stroke="#D4C8AC"/>
  <text x="670" y="506" font-family="Arial, sans-serif" font-size="13" font-weight="700" fill="#31594D">WEBSITE QR</text>
  <text x="670" y="539" font-family="Arial, sans-serif" font-size="15" fill="#3D3327"><tspan x="670" dy="0">Scan for products, routine guidance</tspan><tspan x="670" dy="22">and launch updates.</tspan></text>
  <text x="670" y="586" font-family="Arial, sans-serif" font-size="12" fill="#6F624B">N?55 ? SKIN EQUILIBRIUM</text>
</svg>